<mxfile host="Electron" modified="2023-10-06T03:07:06.721Z" agent="Mozilla/5.0 (Windows NT 10.0; Win64; x64) AppleWebKit/537.36 (KHTML, like Gecko) draw.io/22.0.2 Chrome/114.0.5735.289 Electron/25.8.4 Safari/537.36" etag="WQ9I7OWU9g5lw4B1SPvg" version="22.0.2" type="device">
  <diagram name="Page-1" id="e7e014a7-5840-1c2e-5031-d8a46d1fe8dd">
    <mxGraphModel dx="1369" dy="175" grid="1" gridSize="10" guides="1" tooltips="1" connect="1" arrows="1" fold="1" page="1" pageScale="1" pageWidth="1169" pageHeight="826" background="none" math="0" shadow="0">
      <root>
        <mxCell id="0" />
        <mxCell id="1" parent="0" />
        <mxCell id="cIz2t7t_5_a3O2TUJlPS-43" value="Booking Process" style="swimlane;whiteSpace=wrap" vertex="1" parent="1">
          <mxGeometry x="130" y="840" width="1010" height="460" as="geometry" />
        </mxCell>
        <mxCell id="cIz2t7t_5_a3O2TUJlPS-53" value="" style="ellipse;html=1;shape=startState;fillColor=#000000;strokeColor=#ff0000;" vertex="1" parent="cIz2t7t_5_a3O2TUJlPS-43">
          <mxGeometry x="115" y="200" width="30" height="30" as="geometry" />
        </mxCell>
        <mxCell id="cIz2t7t_5_a3O2TUJlPS-55" value="" style="html=1;dashed=0;whiteSpace=wrap;" vertex="1" parent="cIz2t7t_5_a3O2TUJlPS-43">
          <mxGeometry x="-30" y="110" width="70" height="30" as="geometry" />
        </mxCell>
        <mxCell id="cIz2t7t_5_a3O2TUJlPS-58" value="Receive booking" style="html=1;dashed=0;whiteSpace=wrap;rounded=1;" vertex="1" parent="cIz2t7t_5_a3O2TUJlPS-43">
          <mxGeometry x="80" y="100" width="100" height="50" as="geometry" />
        </mxCell>
        <mxCell id="cIz2t7t_5_a3O2TUJlPS-60" value="Place Booking" style="html=1;dashed=0;whiteSpace=wrap;rounded=1;" vertex="1" parent="cIz2t7t_5_a3O2TUJlPS-43">
          <mxGeometry x="240" y="100" width="100" height="50" as="geometry" />
        </mxCell>
        <mxCell id="cIz2t7t_5_a3O2TUJlPS-62" value="" style="shape=line;strokeWidth=6;strokeColor=#ff0000;rotation=90" vertex="1" parent="cIz2t7t_5_a3O2TUJlPS-43">
          <mxGeometry x="380" y="115" width="50" height="20" as="geometry" />
        </mxCell>
        <mxCell id="cIz2t7t_5_a3O2TUJlPS-70" value="Send Invoice" style="html=1;dashed=0;whiteSpace=wrap;rounded=1;" vertex="1" parent="cIz2t7t_5_a3O2TUJlPS-43">
          <mxGeometry x="140" y="270" width="100" height="50" as="geometry" />
        </mxCell>
        <mxCell id="cIz2t7t_5_a3O2TUJlPS-73" value="" style="endArrow=classic;html=1;rounded=0;endFill=1;exitX=1;exitY=0.5;exitDx=0;exitDy=0;entryX=0;entryY=0.5;entryDx=0;entryDy=0;" edge="1" parent="cIz2t7t_5_a3O2TUJlPS-43" source="cIz2t7t_5_a3O2TUJlPS-55" target="cIz2t7t_5_a3O2TUJlPS-58">
          <mxGeometry width="50" height="50" relative="1" as="geometry">
            <mxPoint x="415" y="148" as="sourcePoint" />
            <mxPoint x="200" y="320" as="targetPoint" />
            <Array as="points" />
          </mxGeometry>
        </mxCell>
        <mxCell id="cIz2t7t_5_a3O2TUJlPS-74" value="" style="endArrow=classic;html=1;rounded=0;endFill=1;exitX=1;exitY=0.5;exitDx=0;exitDy=0;entryX=0;entryY=0.5;entryDx=0;entryDy=0;" edge="1" parent="cIz2t7t_5_a3O2TUJlPS-43" source="cIz2t7t_5_a3O2TUJlPS-58" target="cIz2t7t_5_a3O2TUJlPS-60">
          <mxGeometry width="50" height="50" relative="1" as="geometry">
            <mxPoint x="50" y="135" as="sourcePoint" />
            <mxPoint x="90" y="135" as="targetPoint" />
            <Array as="points" />
          </mxGeometry>
        </mxCell>
        <mxCell id="cIz2t7t_5_a3O2TUJlPS-75" value="" style="endArrow=classic;html=1;rounded=0;endFill=1;exitX=0.5;exitY=0;exitDx=0;exitDy=0;entryX=0.5;entryY=1;entryDx=0;entryDy=0;" edge="1" parent="cIz2t7t_5_a3O2TUJlPS-43" source="cIz2t7t_5_a3O2TUJlPS-53" target="cIz2t7t_5_a3O2TUJlPS-58">
          <mxGeometry width="50" height="50" relative="1" as="geometry">
            <mxPoint x="190" y="135" as="sourcePoint" />
            <mxPoint x="250" y="135" as="targetPoint" />
            <Array as="points" />
          </mxGeometry>
        </mxCell>
        <mxCell id="cIz2t7t_5_a3O2TUJlPS-76" value="" style="endArrow=classic;html=1;rounded=0;endFill=1;exitX=1;exitY=0.5;exitDx=0;exitDy=0;" edge="1" parent="cIz2t7t_5_a3O2TUJlPS-43" source="cIz2t7t_5_a3O2TUJlPS-60">
          <mxGeometry width="50" height="50" relative="1" as="geometry">
            <mxPoint x="140" y="210" as="sourcePoint" />
            <mxPoint x="400" y="125" as="targetPoint" />
            <Array as="points" />
          </mxGeometry>
        </mxCell>
        <mxCell id="cIz2t7t_5_a3O2TUJlPS-78" value="Invoice" style="html=1;dashed=0;whiteSpace=wrap;" vertex="1" parent="cIz2t7t_5_a3O2TUJlPS-43">
          <mxGeometry x="270" y="354" width="100" height="50" as="geometry" />
        </mxCell>
        <mxCell id="cIz2t7t_5_a3O2TUJlPS-79" value="" style="endArrow=classic;html=1;rounded=0;endFill=1;exitX=1;exitY=1;exitDx=0;exitDy=0;entryX=0;entryY=0;entryDx=0;entryDy=0;" edge="1" parent="cIz2t7t_5_a3O2TUJlPS-43" source="cIz2t7t_5_a3O2TUJlPS-70" target="cIz2t7t_5_a3O2TUJlPS-78">
          <mxGeometry width="50" height="50" relative="1" as="geometry">
            <mxPoint x="415" y="108" as="sourcePoint" />
            <mxPoint x="200" y="280" as="targetPoint" />
            <Array as="points" />
          </mxGeometry>
        </mxCell>
        <mxCell id="cIz2t7t_5_a3O2TUJlPS-81" value="Make Payment" style="html=1;dashed=0;whiteSpace=wrap;rounded=1;" vertex="1" parent="cIz2t7t_5_a3O2TUJlPS-43">
          <mxGeometry x="405" y="270" width="100" height="50" as="geometry" />
        </mxCell>
        <mxCell id="cIz2t7t_5_a3O2TUJlPS-82" value="" style="endArrow=classic;html=1;rounded=0;endFill=1;exitX=1;exitY=0;exitDx=0;exitDy=0;entryX=0;entryY=1;entryDx=0;entryDy=0;" edge="1" parent="cIz2t7t_5_a3O2TUJlPS-43" source="cIz2t7t_5_a3O2TUJlPS-78" target="cIz2t7t_5_a3O2TUJlPS-81">
          <mxGeometry width="50" height="50" relative="1" as="geometry">
            <mxPoint x="250" y="330" as="sourcePoint" />
            <mxPoint x="310" y="360" as="targetPoint" />
            <Array as="points" />
          </mxGeometry>
        </mxCell>
        <mxCell id="cIz2t7t_5_a3O2TUJlPS-83" value="Check Payment Status" style="html=1;dashed=0;whiteSpace=wrap;rounded=1;" vertex="1" parent="cIz2t7t_5_a3O2TUJlPS-43">
          <mxGeometry x="560" y="270" width="100" height="50" as="geometry" />
        </mxCell>
        <mxCell id="cIz2t7t_5_a3O2TUJlPS-84" value="" style="endArrow=classic;html=1;rounded=0;endFill=1;exitX=1;exitY=0.5;exitDx=0;exitDy=0;entryX=0;entryY=0.5;entryDx=0;entryDy=0;" edge="1" parent="cIz2t7t_5_a3O2TUJlPS-43" source="cIz2t7t_5_a3O2TUJlPS-81" target="cIz2t7t_5_a3O2TUJlPS-83">
          <mxGeometry width="50" height="50" relative="1" as="geometry">
            <mxPoint x="390" y="364" as="sourcePoint" />
            <mxPoint x="415" y="330" as="targetPoint" />
            <Array as="points" />
          </mxGeometry>
        </mxCell>
        <mxCell id="cIz2t7t_5_a3O2TUJlPS-85" value="" style="rhombus;fillColor=#ffffc0;strokeColor=#ff0000;" vertex="1" parent="cIz2t7t_5_a3O2TUJlPS-43">
          <mxGeometry x="710" y="275" width="80" height="40" as="geometry" />
        </mxCell>
        <mxCell id="cIz2t7t_5_a3O2TUJlPS-86" value="" style="endArrow=classic;html=1;rounded=0;endFill=1;exitX=1;exitY=0.5;exitDx=0;exitDy=0;entryX=0;entryY=0.5;entryDx=0;entryDy=0;" edge="1" parent="cIz2t7t_5_a3O2TUJlPS-43" source="cIz2t7t_5_a3O2TUJlPS-83" target="cIz2t7t_5_a3O2TUJlPS-85">
          <mxGeometry width="50" height="50" relative="1" as="geometry">
            <mxPoint x="515" y="305" as="sourcePoint" />
            <mxPoint x="570" y="305" as="targetPoint" />
            <Array as="points" />
          </mxGeometry>
        </mxCell>
        <mxCell id="cIz2t7t_5_a3O2TUJlPS-87" value="" style="endArrow=classic;html=1;rounded=0;endFill=1;exitX=0.5;exitY=1;exitDx=0;exitDy=0;entryX=0.5;entryY=1;entryDx=0;entryDy=0;" edge="1" parent="cIz2t7t_5_a3O2TUJlPS-43" source="cIz2t7t_5_a3O2TUJlPS-85" target="cIz2t7t_5_a3O2TUJlPS-81">
          <mxGeometry width="50" height="50" relative="1" as="geometry">
            <mxPoint x="670" y="305" as="sourcePoint" />
            <mxPoint x="720" y="305" as="targetPoint" />
            <Array as="points">
              <mxPoint x="750" y="420" />
              <mxPoint x="455" y="420" />
            </Array>
          </mxGeometry>
        </mxCell>
        <mxCell id="cIz2t7t_5_a3O2TUJlPS-88" value="Declined" style="edgeLabel;html=1;align=center;verticalAlign=middle;resizable=0;points=[];" vertex="1" connectable="0" parent="cIz2t7t_5_a3O2TUJlPS-87">
          <mxGeometry x="-0.87" y="4" relative="1" as="geometry">
            <mxPoint as="offset" />
          </mxGeometry>
        </mxCell>
        <mxCell id="cIz2t7t_5_a3O2TUJlPS-90" value="Reserve the property" style="html=1;dashed=0;whiteSpace=wrap;rounded=1;" vertex="1" parent="cIz2t7t_5_a3O2TUJlPS-43">
          <mxGeometry x="485" y="88" width="100" height="50" as="geometry" />
        </mxCell>
        <mxCell id="cIz2t7t_5_a3O2TUJlPS-89" value="" style="endArrow=classic;html=1;rounded=0;endFill=1;exitX=0.5;exitY=0;exitDx=0;exitDy=0;entryX=0.75;entryY=0.5;entryDx=0;entryDy=0;entryPerimeter=0;" edge="1" parent="cIz2t7t_5_a3O2TUJlPS-43" source="cIz2t7t_5_a3O2TUJlPS-85" target="cIz2t7t_5_a3O2TUJlPS-171">
          <mxGeometry width="50" height="50" relative="1" as="geometry">
            <mxPoint x="670" y="305" as="sourcePoint" />
            <mxPoint x="740" y="210" as="targetPoint" />
            <Array as="points">
              <mxPoint x="750" y="200" />
              <mxPoint x="610" y="200" />
              <mxPoint x="610" y="139" />
            </Array>
          </mxGeometry>
        </mxCell>
        <mxCell id="cIz2t7t_5_a3O2TUJlPS-91" value="Yes" style="edgeLabel;html=1;align=center;verticalAlign=middle;resizable=0;points=[];" vertex="1" connectable="0" parent="cIz2t7t_5_a3O2TUJlPS-89">
          <mxGeometry x="-0.7804" y="4" relative="1" as="geometry">
            <mxPoint as="offset" />
          </mxGeometry>
        </mxCell>
        <mxCell id="cIz2t7t_5_a3O2TUJlPS-189" value="Successful" style="edgeLabel;html=1;align=center;verticalAlign=middle;resizable=0;points=[];" vertex="1" connectable="0" parent="cIz2t7t_5_a3O2TUJlPS-89">
          <mxGeometry x="-0.7806" y="5" relative="1" as="geometry">
            <mxPoint as="offset" />
          </mxGeometry>
        </mxCell>
        <mxCell id="cIz2t7t_5_a3O2TUJlPS-92" value="" style="endArrow=classic;html=1;rounded=0;endFill=1;exitX=0.25;exitY=0.5;exitDx=0;exitDy=0;entryX=0;entryY=0.5;entryDx=0;entryDy=0;exitPerimeter=0;" edge="1" parent="cIz2t7t_5_a3O2TUJlPS-43" source="cIz2t7t_5_a3O2TUJlPS-62" target="cIz2t7t_5_a3O2TUJlPS-90">
          <mxGeometry width="50" height="50" relative="1" as="geometry">
            <mxPoint x="350" y="135" as="sourcePoint" />
            <mxPoint x="410" y="135" as="targetPoint" />
            <Array as="points" />
          </mxGeometry>
        </mxCell>
        <mxCell id="cIz2t7t_5_a3O2TUJlPS-94" value="Send Confirmation" style="html=1;dashed=0;whiteSpace=wrap;rounded=1;" vertex="1" parent="cIz2t7t_5_a3O2TUJlPS-43">
          <mxGeometry x="880" y="100" width="100" height="50" as="geometry" />
        </mxCell>
        <mxCell id="cIz2t7t_5_a3O2TUJlPS-93" value="" style="endArrow=classic;html=1;rounded=0;endFill=1;exitX=1;exitY=0.5;exitDx=0;exitDy=0;entryX=0.25;entryY=0.5;entryDx=0;entryDy=0;entryPerimeter=0;" edge="1" parent="cIz2t7t_5_a3O2TUJlPS-43" source="cIz2t7t_5_a3O2TUJlPS-90" target="cIz2t7t_5_a3O2TUJlPS-171">
          <mxGeometry width="50" height="50" relative="1" as="geometry">
            <mxPoint x="415" y="123" as="sourcePoint" />
            <mxPoint x="660" y="122" as="targetPoint" />
            <Array as="points" />
          </mxGeometry>
        </mxCell>
        <mxCell id="cIz2t7t_5_a3O2TUJlPS-95" value="" style="ellipse;shape=endState;fillColor=#000000;strokeColor=#ff0000" vertex="1" parent="cIz2t7t_5_a3O2TUJlPS-43">
          <mxGeometry x="915" y="215" width="30" height="30" as="geometry" />
        </mxCell>
        <mxCell id="cIz2t7t_5_a3O2TUJlPS-97" value="" style="endArrow=classic;html=1;rounded=0;endFill=1;exitX=0.5;exitY=1;exitDx=0;exitDy=0;entryX=0.5;entryY=0;entryDx=0;entryDy=0;" edge="1" parent="cIz2t7t_5_a3O2TUJlPS-43" source="cIz2t7t_5_a3O2TUJlPS-94" target="cIz2t7t_5_a3O2TUJlPS-95">
          <mxGeometry width="50" height="50" relative="1" as="geometry">
            <mxPoint x="610" y="123" as="sourcePoint" />
            <mxPoint x="690" y="123" as="targetPoint" />
            <Array as="points" />
          </mxGeometry>
        </mxCell>
        <mxCell id="cIz2t7t_5_a3O2TUJlPS-171" value="" style="shape=line;strokeWidth=6;strokeColor=#ff0000;rotation=90" vertex="1" parent="cIz2t7t_5_a3O2TUJlPS-43">
          <mxGeometry x="630" y="116" width="50" height="20" as="geometry" />
        </mxCell>
        <mxCell id="cIz2t7t_5_a3O2TUJlPS-72" value="" style="endArrow=classic;html=1;rounded=0;endFill=1;exitX=0.75;exitY=0.5;exitDx=0;exitDy=0;exitPerimeter=0;entryX=0.5;entryY=0;entryDx=0;entryDy=0;" edge="1" parent="cIz2t7t_5_a3O2TUJlPS-43" source="cIz2t7t_5_a3O2TUJlPS-62" target="cIz2t7t_5_a3O2TUJlPS-70">
          <mxGeometry width="50" height="50" relative="1" as="geometry">
            <mxPoint x="410" y="142.5" as="sourcePoint" />
            <mxPoint x="194.99999999999977" y="275" as="targetPoint" />
            <Array as="points">
              <mxPoint x="455" y="138" />
              <mxPoint x="455" y="235" />
              <mxPoint x="190" y="235" />
            </Array>
          </mxGeometry>
        </mxCell>
        <mxCell id="cIz2t7t_5_a3O2TUJlPS-174" value="Send Confirmation" style="html=1;dashed=0;whiteSpace=wrap;rounded=1;" vertex="1" parent="cIz2t7t_5_a3O2TUJlPS-43">
          <mxGeometry x="720" y="100" width="100" height="50" as="geometry" />
        </mxCell>
        <mxCell id="cIz2t7t_5_a3O2TUJlPS-175" value="" style="endArrow=classic;html=1;rounded=0;endFill=1;exitX=0.47;exitY=0.357;exitDx=0;exitDy=0;entryX=0;entryY=0.5;entryDx=0;entryDy=0;exitPerimeter=0;" edge="1" parent="cIz2t7t_5_a3O2TUJlPS-43" source="cIz2t7t_5_a3O2TUJlPS-171" target="cIz2t7t_5_a3O2TUJlPS-174">
          <mxGeometry width="50" height="50" relative="1" as="geometry">
            <mxPoint x="580" y="123" as="sourcePoint" />
            <mxPoint x="665" y="124" as="targetPoint" />
            <Array as="points" />
          </mxGeometry>
        </mxCell>
        <mxCell id="cIz2t7t_5_a3O2TUJlPS-176" value="" style="endArrow=classic;html=1;rounded=0;endFill=1;exitX=1;exitY=0.5;exitDx=0;exitDy=0;entryX=0;entryY=0.5;entryDx=0;entryDy=0;" edge="1" parent="cIz2t7t_5_a3O2TUJlPS-43" source="cIz2t7t_5_a3O2TUJlPS-174" target="cIz2t7t_5_a3O2TUJlPS-94">
          <mxGeometry width="50" height="50" relative="1" as="geometry">
            <mxPoint x="940" y="161" as="sourcePoint" />
            <mxPoint x="905" y="250" as="targetPoint" />
            <Array as="points" />
          </mxGeometry>
        </mxCell>
        <mxCell id="cIz2t7t_5_a3O2TUJlPS-56" value="Booking Request" style="text;html=1;strokeColor=none;fillColor=none;align=center;verticalAlign=middle;whiteSpace=wrap;rounded=0;" vertex="1" parent="1">
          <mxGeometry x="20" y="920" width="120" height="30" as="geometry" />
        </mxCell>
        <mxCell id="cIz2t7t_5_a3O2TUJlPS-160" value="Refund Process" style="swimlane;whiteSpace=wrap" vertex="1" parent="1">
          <mxGeometry x="130" y="1340" width="790" height="420" as="geometry" />
        </mxCell>
        <mxCell id="cIz2t7t_5_a3O2TUJlPS-177" value="" style="html=1;dashed=0;whiteSpace=wrap;" vertex="1" parent="cIz2t7t_5_a3O2TUJlPS-160">
          <mxGeometry x="-30" y="110" width="70" height="30" as="geometry" />
        </mxCell>
        <mxCell id="cIz2t7t_5_a3O2TUJlPS-179" value="Receive refund&lt;br&gt;request" style="html=1;dashed=0;whiteSpace=wrap;rounded=1;" vertex="1" parent="cIz2t7t_5_a3O2TUJlPS-160">
          <mxGeometry x="90" y="100" width="100" height="50" as="geometry" />
        </mxCell>
        <mxCell id="cIz2t7t_5_a3O2TUJlPS-180" value="" style="endArrow=classic;html=1;rounded=0;endFill=1;exitX=1;exitY=0.5;exitDx=0;exitDy=0;entryX=0;entryY=0.5;entryDx=0;entryDy=0;" edge="1" parent="cIz2t7t_5_a3O2TUJlPS-160" source="cIz2t7t_5_a3O2TUJlPS-177" target="cIz2t7t_5_a3O2TUJlPS-179">
          <mxGeometry width="50" height="50" relative="1" as="geometry">
            <mxPoint x="50" y="-355" as="sourcePoint" />
            <mxPoint x="90" y="-355" as="targetPoint" />
            <Array as="points" />
          </mxGeometry>
        </mxCell>
        <mxCell id="cIz2t7t_5_a3O2TUJlPS-181" value="" style="ellipse;html=1;shape=startState;fillColor=#000000;strokeColor=#ff0000;" vertex="1" parent="cIz2t7t_5_a3O2TUJlPS-160">
          <mxGeometry x="125" y="190" width="30" height="30" as="geometry" />
        </mxCell>
        <mxCell id="cIz2t7t_5_a3O2TUJlPS-183" value="" style="endArrow=classic;html=1;rounded=0;endFill=1;entryX=0.5;entryY=1;entryDx=0;entryDy=0;exitX=0.5;exitY=0;exitDx=0;exitDy=0;" edge="1" parent="cIz2t7t_5_a3O2TUJlPS-160" source="cIz2t7t_5_a3O2TUJlPS-181" target="cIz2t7t_5_a3O2TUJlPS-179">
          <mxGeometry width="50" height="50" relative="1" as="geometry">
            <mxPoint x="190" y="200" as="sourcePoint" />
            <mxPoint x="140" y="-330" as="targetPoint" />
            <Array as="points" />
          </mxGeometry>
        </mxCell>
        <mxCell id="cIz2t7t_5_a3O2TUJlPS-185" value="Process refund&lt;br&gt;request" style="html=1;dashed=0;whiteSpace=wrap;rounded=1;" vertex="1" parent="cIz2t7t_5_a3O2TUJlPS-160">
          <mxGeometry x="240" y="100" width="100" height="50" as="geometry" />
        </mxCell>
        <mxCell id="cIz2t7t_5_a3O2TUJlPS-186" value="" style="endArrow=classic;html=1;rounded=0;endFill=1;entryX=0;entryY=0.5;entryDx=0;entryDy=0;exitX=1;exitY=0.5;exitDx=0;exitDy=0;" edge="1" parent="cIz2t7t_5_a3O2TUJlPS-160" source="cIz2t7t_5_a3O2TUJlPS-179" target="cIz2t7t_5_a3O2TUJlPS-185">
          <mxGeometry width="50" height="50" relative="1" as="geometry">
            <mxPoint x="210" y="120" as="sourcePoint" />
            <mxPoint x="100" y="135" as="targetPoint" />
            <Array as="points" />
          </mxGeometry>
        </mxCell>
        <mxCell id="cIz2t7t_5_a3O2TUJlPS-187" value="" style="rhombus;fillColor=#ffffc0;strokeColor=#ff0000;" vertex="1" parent="cIz2t7t_5_a3O2TUJlPS-160">
          <mxGeometry x="410" y="105" width="80" height="40" as="geometry" />
        </mxCell>
        <mxCell id="cIz2t7t_5_a3O2TUJlPS-193" value="" style="endArrow=classic;html=1;rounded=0;endFill=1;entryX=0;entryY=0.5;entryDx=0;entryDy=0;exitX=1;exitY=0.5;exitDx=0;exitDy=0;" edge="1" parent="cIz2t7t_5_a3O2TUJlPS-160" source="cIz2t7t_5_a3O2TUJlPS-185" target="cIz2t7t_5_a3O2TUJlPS-187">
          <mxGeometry width="50" height="50" relative="1" as="geometry">
            <mxPoint x="200" y="135" as="sourcePoint" />
            <mxPoint x="250" y="135" as="targetPoint" />
            <Array as="points" />
          </mxGeometry>
        </mxCell>
        <mxCell id="cIz2t7t_5_a3O2TUJlPS-195" value="Start refund process" style="html=1;dashed=0;whiteSpace=wrap;rounded=1;" vertex="1" parent="cIz2t7t_5_a3O2TUJlPS-160">
          <mxGeometry x="400" y="230" width="100" height="50" as="geometry" />
        </mxCell>
        <mxCell id="cIz2t7t_5_a3O2TUJlPS-194" value="Send Decline&lt;br&gt;Letter" style="html=1;dashed=0;whiteSpace=wrap;rounded=1;" vertex="1" parent="cIz2t7t_5_a3O2TUJlPS-160">
          <mxGeometry x="610" y="100" width="100" height="50" as="geometry" />
        </mxCell>
        <mxCell id="cIz2t7t_5_a3O2TUJlPS-196" value="" style="endArrow=classic;html=1;rounded=0;endFill=1;entryX=0;entryY=0.5;entryDx=0;entryDy=0;exitX=1;exitY=0.5;exitDx=0;exitDy=0;" edge="1" parent="cIz2t7t_5_a3O2TUJlPS-160" source="cIz2t7t_5_a3O2TUJlPS-187" target="cIz2t7t_5_a3O2TUJlPS-194">
          <mxGeometry width="50" height="50" relative="1" as="geometry">
            <mxPoint x="350" y="135" as="sourcePoint" />
            <mxPoint x="420" y="135" as="targetPoint" />
            <Array as="points" />
          </mxGeometry>
        </mxCell>
        <mxCell id="cIz2t7t_5_a3O2TUJlPS-199" value="Rejected" style="edgeLabel;html=1;align=center;verticalAlign=middle;resizable=0;points=[];" vertex="1" connectable="0" parent="cIz2t7t_5_a3O2TUJlPS-196">
          <mxGeometry x="-0.1255" y="3" relative="1" as="geometry">
            <mxPoint as="offset" />
          </mxGeometry>
        </mxCell>
        <mxCell id="cIz2t7t_5_a3O2TUJlPS-197" value="" style="endArrow=classic;html=1;rounded=0;endFill=1;entryX=0.5;entryY=0;entryDx=0;entryDy=0;exitX=0.5;exitY=1;exitDx=0;exitDy=0;" edge="1" parent="cIz2t7t_5_a3O2TUJlPS-160" source="cIz2t7t_5_a3O2TUJlPS-187" target="cIz2t7t_5_a3O2TUJlPS-195">
          <mxGeometry width="50" height="50" relative="1" as="geometry">
            <mxPoint x="500" y="135" as="sourcePoint" />
            <mxPoint x="570" y="135" as="targetPoint" />
            <Array as="points" />
          </mxGeometry>
        </mxCell>
        <mxCell id="cIz2t7t_5_a3O2TUJlPS-198" value="Accepted" style="edgeLabel;html=1;align=center;verticalAlign=middle;resizable=0;points=[];" vertex="1" connectable="0" parent="cIz2t7t_5_a3O2TUJlPS-197">
          <mxGeometry x="-0.1288" relative="1" as="geometry">
            <mxPoint as="offset" />
          </mxGeometry>
        </mxCell>
        <mxCell id="cIz2t7t_5_a3O2TUJlPS-200" value="Send Confirmation" style="html=1;dashed=0;whiteSpace=wrap;rounded=1;" vertex="1" parent="cIz2t7t_5_a3O2TUJlPS-160">
          <mxGeometry x="400" y="342" width="100" height="50" as="geometry" />
        </mxCell>
        <mxCell id="cIz2t7t_5_a3O2TUJlPS-205" value="" style="endArrow=classic;html=1;rounded=0;endFill=1;entryX=0.5;entryY=0;entryDx=0;entryDy=0;exitX=0.5;exitY=1;exitDx=0;exitDy=0;" edge="1" parent="cIz2t7t_5_a3O2TUJlPS-160" source="cIz2t7t_5_a3O2TUJlPS-195" target="cIz2t7t_5_a3O2TUJlPS-200">
          <mxGeometry width="50" height="50" relative="1" as="geometry">
            <mxPoint x="350" y="135" as="sourcePoint" />
            <mxPoint x="420" y="135" as="targetPoint" />
            <Array as="points" />
          </mxGeometry>
        </mxCell>
        <mxCell id="cIz2t7t_5_a3O2TUJlPS-207" value="" style="ellipse;shape=endState;fillColor=#000000;strokeColor=#ff0000" vertex="1" parent="cIz2t7t_5_a3O2TUJlPS-160">
          <mxGeometry x="645" y="230" width="30" height="30" as="geometry" />
        </mxCell>
        <mxCell id="cIz2t7t_5_a3O2TUJlPS-208" value="" style="endArrow=classic;html=1;rounded=0;endFill=1;entryX=0.5;entryY=1;entryDx=0;entryDy=0;exitX=1;exitY=0.5;exitDx=0;exitDy=0;" edge="1" parent="cIz2t7t_5_a3O2TUJlPS-160" source="cIz2t7t_5_a3O2TUJlPS-200" target="cIz2t7t_5_a3O2TUJlPS-207">
          <mxGeometry width="50" height="50" relative="1" as="geometry">
            <mxPoint x="460" y="290" as="sourcePoint" />
            <mxPoint x="460" y="360" as="targetPoint" />
            <Array as="points">
              <mxPoint x="660" y="367" />
            </Array>
          </mxGeometry>
        </mxCell>
        <mxCell id="cIz2t7t_5_a3O2TUJlPS-209" value="" style="endArrow=classic;html=1;rounded=0;endFill=1;entryX=0.5;entryY=0;entryDx=0;entryDy=0;exitX=0.5;exitY=1;exitDx=0;exitDy=0;" edge="1" parent="cIz2t7t_5_a3O2TUJlPS-160" source="cIz2t7t_5_a3O2TUJlPS-194" target="cIz2t7t_5_a3O2TUJlPS-207">
          <mxGeometry width="50" height="50" relative="1" as="geometry">
            <mxPoint x="660" y="110" as="sourcePoint" />
            <mxPoint x="670" y="270" as="targetPoint" />
            <Array as="points" />
          </mxGeometry>
        </mxCell>
        <mxCell id="cIz2t7t_5_a3O2TUJlPS-170" value="Feedback Process" style="swimlane;whiteSpace=wrap" vertex="1" parent="1">
          <mxGeometry x="130" y="1780" width="810" height="260" as="geometry" />
        </mxCell>
        <mxCell id="cIz2t7t_5_a3O2TUJlPS-212" value="Receive &lt;br&gt;feedback" style="html=1;dashed=0;whiteSpace=wrap;rounded=1;" vertex="1" parent="cIz2t7t_5_a3O2TUJlPS-170">
          <mxGeometry x="90" y="100" width="100" height="50" as="geometry" />
        </mxCell>
        <mxCell id="cIz2t7t_5_a3O2TUJlPS-214" value="" style="ellipse;html=1;shape=startState;fillColor=#000000;strokeColor=#ff0000;" vertex="1" parent="cIz2t7t_5_a3O2TUJlPS-170">
          <mxGeometry x="125" y="200" width="30" height="30" as="geometry" />
        </mxCell>
        <mxCell id="cIz2t7t_5_a3O2TUJlPS-215" value="" style="endArrow=classic;html=1;rounded=0;endFill=1;entryX=0.5;entryY=1;entryDx=0;entryDy=0;exitX=0.5;exitY=0;exitDx=0;exitDy=0;" edge="1" parent="cIz2t7t_5_a3O2TUJlPS-170" source="cIz2t7t_5_a3O2TUJlPS-214" target="cIz2t7t_5_a3O2TUJlPS-212">
          <mxGeometry width="50" height="50" relative="1" as="geometry">
            <mxPoint x="150" y="-270" as="sourcePoint" />
            <mxPoint x="150" y="-310" as="targetPoint" />
            <Array as="points" />
          </mxGeometry>
        </mxCell>
        <mxCell id="cIz2t7t_5_a3O2TUJlPS-219" value="" style="shape=line;strokeWidth=6;strokeColor=#ff0000;rotation=90" vertex="1" parent="cIz2t7t_5_a3O2TUJlPS-170">
          <mxGeometry x="230" y="117" width="50" height="20" as="geometry" />
        </mxCell>
        <mxCell id="cIz2t7t_5_a3O2TUJlPS-220" value="" style="endArrow=classic;html=1;rounded=0;endFill=1;exitX=1;exitY=0.5;exitDx=0;exitDy=0;entryX=0.464;entryY=0.7;entryDx=0;entryDy=0;entryPerimeter=0;" edge="1" parent="cIz2t7t_5_a3O2TUJlPS-170" source="cIz2t7t_5_a3O2TUJlPS-212" target="cIz2t7t_5_a3O2TUJlPS-219">
          <mxGeometry width="50" height="50" relative="1" as="geometry">
            <mxPoint x="320" y="1905" as="sourcePoint" />
            <mxPoint x="369.9999999999998" y="1905" as="targetPoint" />
            <Array as="points" />
          </mxGeometry>
        </mxCell>
        <mxCell id="cIz2t7t_5_a3O2TUJlPS-225" value="Sent to property owner" style="html=1;dashed=0;whiteSpace=wrap;rounded=1;" vertex="1" parent="cIz2t7t_5_a3O2TUJlPS-170">
          <mxGeometry x="320" y="70" width="100" height="50" as="geometry" />
        </mxCell>
        <mxCell id="cIz2t7t_5_a3O2TUJlPS-224" value="Sent to administrator" style="html=1;dashed=0;whiteSpace=wrap;rounded=1;" vertex="1" parent="cIz2t7t_5_a3O2TUJlPS-170">
          <mxGeometry x="320" y="137" width="100" height="50" as="geometry" />
        </mxCell>
        <mxCell id="cIz2t7t_5_a3O2TUJlPS-226" value="" style="endArrow=classic;html=1;rounded=0;endFill=1;exitX=0.25;exitY=0.5;exitDx=0;exitDy=0;entryX=0;entryY=0.5;entryDx=0;entryDy=0;exitPerimeter=0;" edge="1" parent="cIz2t7t_5_a3O2TUJlPS-170" source="cIz2t7t_5_a3O2TUJlPS-219" target="cIz2t7t_5_a3O2TUJlPS-225">
          <mxGeometry width="50" height="50" relative="1" as="geometry">
            <mxPoint x="200" y="135" as="sourcePoint" />
            <mxPoint x="261" y="135" as="targetPoint" />
            <Array as="points" />
          </mxGeometry>
        </mxCell>
        <mxCell id="cIz2t7t_5_a3O2TUJlPS-227" value="" style="endArrow=classic;html=1;rounded=0;endFill=1;exitX=0.75;exitY=0.5;exitDx=0;exitDy=0;entryX=0;entryY=0.5;entryDx=0;entryDy=0;exitPerimeter=0;" edge="1" parent="cIz2t7t_5_a3O2TUJlPS-170" source="cIz2t7t_5_a3O2TUJlPS-219" target="cIz2t7t_5_a3O2TUJlPS-224">
          <mxGeometry width="50" height="50" relative="1" as="geometry">
            <mxPoint x="200" y="135" as="sourcePoint" />
            <mxPoint x="261" y="135" as="targetPoint" />
            <Array as="points" />
          </mxGeometry>
        </mxCell>
        <mxCell id="cIz2t7t_5_a3O2TUJlPS-228" value="Review &lt;br&gt;Feedback" style="html=1;dashed=0;whiteSpace=wrap;rounded=1;" vertex="1" parent="cIz2t7t_5_a3O2TUJlPS-170">
          <mxGeometry x="562" y="103" width="100" height="50" as="geometry" />
        </mxCell>
        <mxCell id="cIz2t7t_5_a3O2TUJlPS-229" value="" style="endArrow=classic;html=1;rounded=0;endFill=1;exitX=1;exitY=0.5;exitDx=0;exitDy=0;entryX=0.25;entryY=0.5;entryDx=0;entryDy=0;entryPerimeter=0;" edge="1" parent="cIz2t7t_5_a3O2TUJlPS-170" source="cIz2t7t_5_a3O2TUJlPS-225" target="cIz2t7t_5_a3O2TUJlPS-231">
          <mxGeometry width="50" height="50" relative="1" as="geometry">
            <mxPoint x="265" y="124" as="sourcePoint" />
            <mxPoint x="480" y="110" as="targetPoint" />
            <Array as="points" />
          </mxGeometry>
        </mxCell>
        <mxCell id="cIz2t7t_5_a3O2TUJlPS-230" value="" style="endArrow=classic;html=1;rounded=0;endFill=1;exitX=1;exitY=0.5;exitDx=0;exitDy=0;entryX=0.75;entryY=0.5;entryDx=0;entryDy=0;entryPerimeter=0;" edge="1" parent="cIz2t7t_5_a3O2TUJlPS-170" source="cIz2t7t_5_a3O2TUJlPS-224" target="cIz2t7t_5_a3O2TUJlPS-231">
          <mxGeometry width="50" height="50" relative="1" as="geometry">
            <mxPoint x="430" y="105" as="sourcePoint" />
            <mxPoint x="460" y="150" as="targetPoint" />
            <Array as="points" />
          </mxGeometry>
        </mxCell>
        <mxCell id="cIz2t7t_5_a3O2TUJlPS-231" value="" style="shape=line;strokeWidth=6;strokeColor=#ff0000;rotation=90" vertex="1" parent="cIz2t7t_5_a3O2TUJlPS-170">
          <mxGeometry x="460" y="117" width="50" height="20" as="geometry" />
        </mxCell>
        <mxCell id="cIz2t7t_5_a3O2TUJlPS-232" value="" style="endArrow=classic;html=1;rounded=0;endFill=1;entryX=0;entryY=0.5;entryDx=0;entryDy=0;exitX=0.513;exitY=0.484;exitDx=0;exitDy=0;exitPerimeter=0;" edge="1" parent="cIz2t7t_5_a3O2TUJlPS-170" source="cIz2t7t_5_a3O2TUJlPS-231" target="cIz2t7t_5_a3O2TUJlPS-228">
          <mxGeometry width="50" height="50" relative="1" as="geometry">
            <mxPoint x="510" y="100" as="sourcePoint" />
            <mxPoint x="495" y="149" as="targetPoint" />
            <Array as="points" />
          </mxGeometry>
        </mxCell>
        <mxCell id="cIz2t7t_5_a3O2TUJlPS-233" value="" style="ellipse;shape=endState;fillColor=#000000;strokeColor=#ff0000" vertex="1" parent="cIz2t7t_5_a3O2TUJlPS-170">
          <mxGeometry x="740" y="113" width="30" height="30" as="geometry" />
        </mxCell>
        <mxCell id="cIz2t7t_5_a3O2TUJlPS-235" value="" style="endArrow=classic;html=1;rounded=0;endFill=1;entryX=0;entryY=0.5;entryDx=0;entryDy=0;exitX=1;exitY=0.5;exitDx=0;exitDy=0;" edge="1" parent="cIz2t7t_5_a3O2TUJlPS-170" source="cIz2t7t_5_a3O2TUJlPS-228" target="cIz2t7t_5_a3O2TUJlPS-233">
          <mxGeometry width="50" height="50" relative="1" as="geometry">
            <mxPoint x="495" y="138" as="sourcePoint" />
            <mxPoint x="572" y="138" as="targetPoint" />
            <Array as="points" />
          </mxGeometry>
        </mxCell>
        <mxCell id="cIz2t7t_5_a3O2TUJlPS-178" value="Refund Request" style="text;html=1;strokeColor=none;fillColor=none;align=center;verticalAlign=middle;whiteSpace=wrap;rounded=0;" vertex="1" parent="1">
          <mxGeometry x="20" y="1420" width="120" height="30" as="geometry" />
        </mxCell>
        <mxCell id="cIz2t7t_5_a3O2TUJlPS-210" value="" style="html=1;dashed=0;whiteSpace=wrap;" vertex="1" parent="1">
          <mxGeometry x="100" y="1890" width="70" height="30" as="geometry" />
        </mxCell>
        <mxCell id="cIz2t7t_5_a3O2TUJlPS-211" value="Feedback" style="text;html=1;strokeColor=none;fillColor=none;align=center;verticalAlign=middle;whiteSpace=wrap;rounded=0;" vertex="1" parent="1">
          <mxGeometry x="30" y="1860" width="120" height="30" as="geometry" />
        </mxCell>
        <mxCell id="cIz2t7t_5_a3O2TUJlPS-213" value="" style="endArrow=classic;html=1;rounded=0;endFill=1;exitX=1;exitY=0.5;exitDx=0;exitDy=0;entryX=0;entryY=0.5;entryDx=0;entryDy=0;" edge="1" parent="1" source="cIz2t7t_5_a3O2TUJlPS-210" target="cIz2t7t_5_a3O2TUJlPS-212">
          <mxGeometry width="50" height="50" relative="1" as="geometry">
            <mxPoint x="180" y="1445" as="sourcePoint" />
            <mxPoint x="230" y="1445" as="targetPoint" />
            <Array as="points" />
          </mxGeometry>
        </mxCell>
        <mxCell id="cIz2t7t_5_a3O2TUJlPS-254" value="User Registration Process" style="swimlane;whiteSpace=wrap" vertex="1" parent="1">
          <mxGeometry x="130" y="2100" width="940" height="370" as="geometry" />
        </mxCell>
        <mxCell id="cIz2t7t_5_a3O2TUJlPS-255" value="Create username and password" style="html=1;dashed=0;whiteSpace=wrap;rounded=1;" vertex="1" parent="cIz2t7t_5_a3O2TUJlPS-254">
          <mxGeometry x="120" y="102" width="100" height="50" as="geometry" />
        </mxCell>
        <mxCell id="cIz2t7t_5_a3O2TUJlPS-256" value="" style="ellipse;html=1;shape=startState;fillColor=#000000;strokeColor=#ff0000;" vertex="1" parent="cIz2t7t_5_a3O2TUJlPS-254">
          <mxGeometry x="50" y="113" width="30" height="30" as="geometry" />
        </mxCell>
        <mxCell id="cIz2t7t_5_a3O2TUJlPS-257" value="" style="endArrow=classic;html=1;rounded=0;endFill=1;entryX=0;entryY=0.5;entryDx=0;entryDy=0;exitX=1;exitY=0.5;exitDx=0;exitDy=0;" edge="1" parent="cIz2t7t_5_a3O2TUJlPS-254" source="cIz2t7t_5_a3O2TUJlPS-256" target="cIz2t7t_5_a3O2TUJlPS-255">
          <mxGeometry width="50" height="50" relative="1" as="geometry">
            <mxPoint x="150" y="-270" as="sourcePoint" />
            <mxPoint x="150" y="-310" as="targetPoint" />
            <Array as="points" />
          </mxGeometry>
        </mxCell>
        <mxCell id="cIz2t7t_5_a3O2TUJlPS-259" value="" style="endArrow=classic;html=1;rounded=0;endFill=1;exitX=1;exitY=0.5;exitDx=0;exitDy=0;entryX=0;entryY=0.5;entryDx=0;entryDy=0;" edge="1" parent="cIz2t7t_5_a3O2TUJlPS-254" source="cIz2t7t_5_a3O2TUJlPS-255" target="cIz2t7t_5_a3O2TUJlPS-275">
          <mxGeometry width="50" height="50" relative="1" as="geometry">
            <mxPoint x="520" y="1905" as="sourcePoint" />
            <mxPoint x="569.9999999999998" y="1905" as="targetPoint" />
            <Array as="points" />
          </mxGeometry>
        </mxCell>
        <mxCell id="cIz2t7t_5_a3O2TUJlPS-275" value="Enter personal&lt;br&gt;information" style="html=1;dashed=0;whiteSpace=wrap;rounded=1;" vertex="1" parent="cIz2t7t_5_a3O2TUJlPS-254">
          <mxGeometry x="270" y="102" width="100" height="50" as="geometry" />
        </mxCell>
        <mxCell id="cIz2t7t_5_a3O2TUJlPS-276" value="Enter email&lt;br&gt;address" style="html=1;dashed=0;whiteSpace=wrap;rounded=1;" vertex="1" parent="cIz2t7t_5_a3O2TUJlPS-254">
          <mxGeometry x="430" y="102" width="100" height="50" as="geometry" />
        </mxCell>
        <mxCell id="cIz2t7t_5_a3O2TUJlPS-277" value="" style="endArrow=classic;html=1;rounded=0;endFill=1;entryX=0;entryY=0.5;entryDx=0;entryDy=0;exitX=1;exitY=0.5;exitDx=0;exitDy=0;" edge="1" parent="cIz2t7t_5_a3O2TUJlPS-254" source="cIz2t7t_5_a3O2TUJlPS-275" target="cIz2t7t_5_a3O2TUJlPS-276">
          <mxGeometry width="50" height="50" relative="1" as="geometry">
            <mxPoint x="410" y="170" as="sourcePoint" />
            <mxPoint x="280" y="137" as="targetPoint" />
            <Array as="points" />
          </mxGeometry>
        </mxCell>
        <mxCell id="cIz2t7t_5_a3O2TUJlPS-278" value="" style="rhombus;fillColor=#ffffc0;strokeColor=#ff0000;" vertex="1" parent="cIz2t7t_5_a3O2TUJlPS-254">
          <mxGeometry x="590" y="108" width="80" height="40" as="geometry" />
        </mxCell>
        <mxCell id="cIz2t7t_5_a3O2TUJlPS-280" value="" style="endArrow=classic;html=1;rounded=0;endFill=1;entryX=0;entryY=0.5;entryDx=0;entryDy=0;exitX=1;exitY=0.5;exitDx=0;exitDy=0;" edge="1" parent="cIz2t7t_5_a3O2TUJlPS-254" source="cIz2t7t_5_a3O2TUJlPS-276" target="cIz2t7t_5_a3O2TUJlPS-278">
          <mxGeometry width="50" height="50" relative="1" as="geometry">
            <mxPoint x="380" y="137" as="sourcePoint" />
            <mxPoint x="440" y="137" as="targetPoint" />
            <Array as="points" />
          </mxGeometry>
        </mxCell>
        <mxCell id="cIz2t7t_5_a3O2TUJlPS-283" value="Create an account" style="html=1;dashed=0;whiteSpace=wrap;rounded=1;" vertex="1" parent="cIz2t7t_5_a3O2TUJlPS-254">
          <mxGeometry x="580" y="205" width="100" height="50" as="geometry" />
        </mxCell>
        <mxCell id="cIz2t7t_5_a3O2TUJlPS-281" value="Error message" style="html=1;dashed=0;whiteSpace=wrap;rounded=1;" vertex="1" parent="cIz2t7t_5_a3O2TUJlPS-254">
          <mxGeometry x="790" y="102" width="100" height="50" as="geometry" />
        </mxCell>
        <mxCell id="cIz2t7t_5_a3O2TUJlPS-285" value="" style="endArrow=classic;html=1;rounded=0;endFill=1;entryX=0.5;entryY=0;entryDx=0;entryDy=0;exitX=0.5;exitY=1;exitDx=0;exitDy=0;" edge="1" parent="cIz2t7t_5_a3O2TUJlPS-254" source="cIz2t7t_5_a3O2TUJlPS-278" target="cIz2t7t_5_a3O2TUJlPS-283">
          <mxGeometry width="50" height="50" relative="1" as="geometry">
            <mxPoint x="540" y="137" as="sourcePoint" />
            <mxPoint x="600" y="138" as="targetPoint" />
            <Array as="points" />
          </mxGeometry>
        </mxCell>
        <mxCell id="cIz2t7t_5_a3O2TUJlPS-291" value="Successful" style="edgeLabel;html=1;align=center;verticalAlign=middle;resizable=0;points=[];" vertex="1" connectable="0" parent="cIz2t7t_5_a3O2TUJlPS-285">
          <mxGeometry x="-0.442" relative="1" as="geometry">
            <mxPoint x="-1" y="6" as="offset" />
          </mxGeometry>
        </mxCell>
        <mxCell id="cIz2t7t_5_a3O2TUJlPS-286" value="" style="endArrow=classic;html=1;rounded=0;endFill=1;entryX=0;entryY=0.5;entryDx=0;entryDy=0;exitX=1;exitY=0.5;exitDx=0;exitDy=0;" edge="1" parent="cIz2t7t_5_a3O2TUJlPS-254" source="cIz2t7t_5_a3O2TUJlPS-278" target="cIz2t7t_5_a3O2TUJlPS-281">
          <mxGeometry width="50" height="50" relative="1" as="geometry">
            <mxPoint x="640" y="158" as="sourcePoint" />
            <mxPoint x="640" y="215" as="targetPoint" />
            <Array as="points" />
          </mxGeometry>
        </mxCell>
        <mxCell id="cIz2t7t_5_a3O2TUJlPS-289" value="Email already&lt;br&gt;used" style="edgeLabel;html=1;align=center;verticalAlign=middle;resizable=0;points=[];" vertex="1" connectable="0" parent="cIz2t7t_5_a3O2TUJlPS-286">
          <mxGeometry x="-0.2542" y="-3" relative="1" as="geometry">
            <mxPoint x="14" y="-3" as="offset" />
          </mxGeometry>
        </mxCell>
        <mxCell id="cIz2t7t_5_a3O2TUJlPS-288" value="" style="endArrow=classic;html=1;rounded=0;endFill=1;entryX=0.5;entryY=0;entryDx=0;entryDy=0;exitX=0.5;exitY=0;exitDx=0;exitDy=0;" edge="1" parent="cIz2t7t_5_a3O2TUJlPS-254" source="cIz2t7t_5_a3O2TUJlPS-281" target="cIz2t7t_5_a3O2TUJlPS-276">
          <mxGeometry width="50" height="50" relative="1" as="geometry">
            <mxPoint x="680" y="138" as="sourcePoint" />
            <mxPoint x="740" y="138" as="targetPoint" />
            <Array as="points">
              <mxPoint x="840" y="60" />
              <mxPoint x="480" y="60" />
            </Array>
          </mxGeometry>
        </mxCell>
        <mxCell id="cIz2t7t_5_a3O2TUJlPS-292" value="" style="ellipse;shape=endState;fillColor=#000000;strokeColor=#ff0000" vertex="1" parent="cIz2t7t_5_a3O2TUJlPS-254">
          <mxGeometry x="615" y="300" width="30" height="30" as="geometry" />
        </mxCell>
        <mxCell id="cIz2t7t_5_a3O2TUJlPS-294" value="" style="endArrow=classic;html=1;rounded=0;endFill=1;entryX=0.5;entryY=0;entryDx=0;entryDy=0;exitX=0.5;exitY=1;exitDx=0;exitDy=0;" edge="1" parent="cIz2t7t_5_a3O2TUJlPS-254" source="cIz2t7t_5_a3O2TUJlPS-283" target="cIz2t7t_5_a3O2TUJlPS-292">
          <mxGeometry width="50" height="50" relative="1" as="geometry">
            <mxPoint x="540" y="137" as="sourcePoint" />
            <mxPoint x="600" y="138" as="targetPoint" />
            <Array as="points" />
          </mxGeometry>
        </mxCell>
      </root>
    </mxGraphModel>
  </diagram>
</mxfile>
